<svg width="32" height="32" viewBox="0 0 32 32" fill="none" xmlns="http://www.w3.org/2000/svg">
  <rect width="32" height="32" rx="8" fill="#005C2E"/>
  <path d="M16 6C10.48 6 6 10.48 6 16C6 21.52 10.48 26 16 26C21.52 26 26 21.52 26 16C26 10.48 21.52 6 16 6ZM16 8C20.42 8 24 11.58 24 16C24 20.42 20.42 24 16 24C11.58 24 8 20.42 8 16C8 11.58 11.58 8 16 8ZM16 12C13.79 12 12 13.79 12 16C12 18.21 13.79 20 16 20C18.21 20 20 18.21 20 16C20 13.79 18.21 12 16 12ZM16 14C17.1 14 18 14.9 18 16C18 17.1 17.1 18 16 18C14.9 18 14 17.1 14 16C14 14.9 14.9 14 16 14Z" fill="white"/>
</svg>